IDResults
version=1
nRows=55
nColumns=3
inDegrees=yes
endheader
time	ankle_angle_r	subtalar_angle_r
0.4	-2.02480505	18.93598174
0.405	-3.45223053	16.66749787
0.41	-4.37345421	15.24010914
0.415	-5.4174694	14.12113288
0.42	-6.62886226	12.17023157
0.425	-7.5371734	11.69747618
0.43	-8.26395353	11.00933228
0.435	-9.3592191	10.85556215
0.44	-10.02701971	10.36067238
0.445	-10.37564983	9.97921291
0.45	-12.28797613	10.20575235
0.455	-13.56505346	10.54622438
0.46	-14.7011879	10.43816607
0.465	-16.09546322	10.30384453
0.47	-17.79012651	10.5082451
0.475	-19.31890062	10.77844427
0.48	-20.43052008	10.75961105
0.485	-22.33891076	10.63108995
0.49	-23.74352956	8.69926565
0.495	-25.3070874	6.61338838
0.5	-27.46826876	4.23084827
0.505	-28.42315933	0.87530524
0.51	-30.00449986	-0.93526793
0.515	-31.58357013	-4.01975209
0.52	-32.42006017	-6.7141958
0.525	-34.5822115	-9.99336939
0.53	-36.30283571	-14.74792347
0.535	-32.3981049	-13.4113949
0.54	-33.53086115	-16.39919783
0.545	-35.20894069	-21.6149618
0.55	-27.44434071	-17.8200282
0.555	-29.48894244	-19.82575244
0.56	-29.19353939	-20.2105513
0.565	-25.35877438	-21.07737823
0.57	-25.56772508	-24.00786477
0.575	-28.82260782	-23.57277812
0.58	-28.53533568	-21.24844824
0.585	-23.99421447	-21.26565572
0.59	-28.36889135	-21.89334054
0.595	-28.62130113	-21.00636554
0.6	-28.65565035	-20.59102319
0.605	-28.25283196	-20.50117528
0.61	-28.15959032	-20.63222891
0.615	-28.00430142	-21.38535932
0.62	-27.61764527	-21.72963678
0.625	-27.69237172	-20.38533002
0.63	-29.22175231	-21.21818
0.635	-23.52596152	-17.61475562
0.64	-28.70795586	-18.08177403
0.645	-29.20385642	-17.49436726
0.65	-29.58223475	-15.36451171
0.655	-30.05935036	-14.88168889
0.66	-25.79863211	-12.15131311
0.665	-32.92793239	-13.09960133
0.67	-43.71827778	-16.92380332
